<?xml version="1.0" encoding="utf-8"?>
<!-- Generator: Adobe Illustrator 15.0.0, SVG Export Plug-In  -->
<!DOCTYPE svg PUBLIC "-//W3C//DTD SVG 1.1//EN" "http://www.w3.org/Graphics/SVG/1.1/DTD/svg11.dtd" [
	<!ENTITY ns_flows "http://ns.adobe.com/Flows/1.0/">
]>
<svg version="1.1"
	 xmlns="http://www.w3.org/2000/svg" xmlns:xlink="http://www.w3.org/1999/xlink" xmlns:a="http://ns.adobe.com/AdobeSVGViewerExtensions/3.0/"
	 x="0px" y="0px" width="47px" height="47px" viewBox="-7.797 0 47 47" overflow="visible" enable-background="new -7.797 0 47 47"
	 xml:space="preserve">
<defs>
</defs>
<path fill="#91B0D5" d="M26.829,21.597l-8.534,18.137c-0.494,1.036-1.569,1.666-2.696,1.666c-1.123,0-2.2-0.63-2.671-1.666
	L4.372,21.597c-0.609-1.29-0.771-2.766-0.771-4.198C3.601,10.767,8.968,5.4,15.599,5.4c6.639,0,12.006,5.367,12.006,11.999
	C27.604,18.831,27.438,20.307,26.829,21.597z"/>
<path fill-rule="evenodd" clip-rule="evenodd" fill="#994708" d="M15.595,22.624c0,0-0.239,1.066-0.239,1.592
	c0,0.526,0.239,1.427,0.239,1.427s0.217-0.768,0.217-1.43C15.812,23.554,15.595,22.624,15.595,22.624z"/>
<path fill-rule="evenodd" clip-rule="evenodd" fill="#994708" d="M15.586,20.814c-1.123,0-1.757,2.755-1.757,2.755
	s0.993-1.459,1.114-1.459c0.288,0,0.4,0.306,0.635,0.306c0.004,0,0.008,0,0.012,0c0.233,0,0.347-0.306,0.635-0.306
	c0.121,0,1.109,1.459,1.109,1.459S16.705,20.814,15.586,20.814z"/>
<path fill-rule="evenodd" clip-rule="evenodd" fill="#994708" d="M15.903,22.494c0,0-0.033,0.855,0.037,1.26
	c0.075,0.408,0.385,1.073,0.385,1.073s0.058-0.627-0.033-1.138C16.195,23.181,15.903,22.494,15.903,22.494z"/>
<path fill-rule="evenodd" clip-rule="evenodd" fill="#994708" d="M16.175,22.256c0,0,0.108,0.687,0.229,0.997
	c0.126,0.316,0.476,0.795,0.476,0.795s-0.05-0.509-0.203-0.899C16.521,22.757,16.175,22.256,16.175,22.256z"/>
<path fill-rule="evenodd" clip-rule="evenodd" fill="#994708" d="M15.21,22.561c0,0,0.034,0.858-0.037,1.262
	c-0.075,0.407-0.384,1.071-0.384,1.071s-0.059-0.625,0.033-1.136C14.914,23.25,15.21,22.561,15.21,22.561z"/>
<path fill-rule="evenodd" clip-rule="evenodd" fill="#994708" d="M14.936,22.323c0,0-0.104,0.687-0.23,1.002
	c-0.121,0.311-0.471,0.793-0.471,0.793s0.049-0.509,0.203-0.902C14.593,22.825,14.936,22.323,14.936,22.323z"/>
<path id="torso_1_" fill="#994708" d="M16.637,16.439c-0.32,0.161-0.462,0.488-1.042,0.488c-0.005,0-0.009,0.001-0.009,0.001
	c-0.004,0-0.004-0.001-0.008-0.001c-0.585,0-0.727-0.328-1.052-0.488c-0.321-0.163-0.989-0.301-0.989-0.301s0.137,0.15,0.363,0.321
	c0.225,0.171,0.366,0.229,0.463,0.354c0.1,0.125,0.25,0.518,0.342,1.38c0.046,0.41,0.242,1.22,0.196,1.821
	c-0.021,0.284-0.158,0.558-0.233,0.797c-0.084,0.271-0.092,0.491-0.092,0.491s0.275-0.674,1.01-0.674
	c0.73,0,1.006,0.674,1.006,0.674s-0.012-0.219-0.092-0.491c-0.075-0.239-0.213-0.513-0.234-0.797
	c-0.041-0.601,0.15-1.411,0.197-1.821c0.091-0.863,0.242-1.255,0.342-1.38c0.096-0.125,0.238-0.184,0.463-0.354
	s0.364-0.321,0.364-0.321S16.964,16.276,16.637,16.439z"/>
<path fill="#994708" d="M12.185,13.847c0,0-1.581-0.409-2.5-0.987c-1.031-0.647-2.045-1.687-2.045-1.687s0.317,0.806,0.885,1.413
	c0.509,0.547,1.261,0.956,1.619,1.261c0.238,0.204,0.622,1.767,1.277,2.812c0.889,1.413,2.266,1.738,2.521,1.993
	c0.325,0.326,0.772,1.707,0.772,1.707s0.062-0.292,0.045-0.553c-0.016-0.258-0.434-2.683-0.566-2.884
	c-0.138-0.213-0.897-0.521-1.424-1.413C12.285,14.696,12.185,13.847,12.185,13.847z"/>
<path fill-rule="evenodd" clip-rule="evenodd" fill="#994708" d="M7.648,12.048c0,0,0.142,0.812,0.976,1.511
	c0.835,0.696,1.604,0.799,1.604,0.799s-0.697-0.41-1.432-1.071C8.065,12.622,7.648,12.048,7.648,12.048z"/>
<path fill-rule="evenodd" clip-rule="evenodd" fill="#994708" d="M8.07,13.461c0,0,0.216,0.603,0.951,1.03
	c0.734,0.427,1.34,0.403,1.34,0.403s-0.593-0.221-1.244-0.639C8.462,13.843,8.07,13.461,8.07,13.461z"/>
<path fill-rule="evenodd" clip-rule="evenodd" fill="#994708" d="M8.486,14.537c0,0,0.238,0.486,0.897,0.774
	c0.656,0.288,1.16,0.211,1.16,0.211s-0.517-0.131-1.105-0.416C8.854,14.824,8.486,14.537,8.486,14.537z"/>
<path fill-rule="evenodd" clip-rule="evenodd" fill="#994708" d="M8.916,15.562c0,0,0.268,0.38,0.856,0.539
	c0.593,0.156,1.01,0.027,1.01,0.027s-0.454-0.044-0.985-0.207C9.264,15.756,8.916,15.562,8.916,15.562z"/>
<path fill-rule="evenodd" clip-rule="evenodd" fill="#994708" d="M9.534,16.484c0,0,0.268,0.305,0.772,0.368
	c0.501,0.062,0.826-0.109,0.826-0.109s-0.384-0.004-0.844-0.079C9.835,16.587,9.534,16.484,9.534,16.484z"/>
<path fill-rule="evenodd" clip-rule="evenodd" fill="#994708" d="M9.78,17.324c0,0,0.372,0.194,0.877,0.14
	c0.509-0.053,0.738-0.261,0.738-0.261s-0.371,0.077-0.831,0.11C10.102,17.342,9.78,17.324,9.78,17.324z"/>
<path fill-rule="evenodd" clip-rule="evenodd" fill="#994708" d="M10.452,18.131c0,0,0.318,0.124,0.718-0.06
	c0.397-0.184,0.568-0.482,0.568-0.482s-0.143,0.129-0.509,0.281C10.861,18.021,10.452,18.131,10.452,18.131z"/>
<path fill-rule="evenodd" clip-rule="evenodd" fill="#994708" d="M11.271,18.789c0,0,0.297,0.006,0.547-0.279
	c0.254-0.288,0.292-0.609,0.292-0.609s-0.092,0.152-0.334,0.404C11.538,18.558,11.271,18.789,11.271,18.789z"/>
<path fill-rule="evenodd" clip-rule="evenodd" fill="#994708" d="M12.135,19.12c0,0,0.237-0.082,0.354-0.39
	c0.117-0.311,0.042-0.581,0.042-0.581s-0.025,0.152-0.139,0.43C12.276,18.855,12.135,19.12,12.135,19.12z"/>
<path fill-rule="evenodd" clip-rule="evenodd" fill="#994708" d="M12.781,19.435c0,0,0.204-0.098,0.284-0.386
	c0.075-0.29-0.009-0.528-0.009-0.528s-0.013,0.14-0.092,0.401C12.886,19.18,12.781,19.435,12.781,19.435z"/>
<path fill-rule="evenodd" clip-rule="evenodd" fill="#994708" d="M13.349,19.63c0,0,0.184-0.114,0.217-0.393
	c0.034-0.278-0.074-0.489-0.074-0.489s0.008,0.131-0.033,0.384C13.415,19.385,13.349,19.63,13.349,19.63z"/>
<path fill-rule="evenodd" clip-rule="evenodd" fill="#994708" d="M13.925,19.89c0,0,0.167-0.188,0.117-0.514
	c-0.051-0.323-0.242-0.521-0.242-0.521s0.05,0.142,0.083,0.438C13.917,19.589,13.925,19.89,13.925,19.89z"/>
<path fill="#994708" d="M19.012,13.847c0,0,1.591-0.409,2.509-0.987c1.025-0.647,2.037-1.687,2.037-1.687s-0.309,0.806-0.877,1.413
	c-0.518,0.547-1.261,0.956-1.619,1.261c-0.242,0.204-0.627,1.767-1.28,2.812c-0.89,1.413-2.271,1.738-2.521,1.993
	c-0.327,0.326-0.776,1.707-0.776,1.707s-0.062-0.292-0.042-0.553c0.017-0.258,0.434-2.683,0.564-2.884
	c0.141-0.213,0.901-0.521,1.426-1.413C18.917,14.696,19.012,13.847,19.012,13.847z"/>
<path fill-rule="evenodd" clip-rule="evenodd" fill="#994708" d="M23.55,12.048c0,0-0.143,0.812-0.979,1.511
	c-0.833,0.696-1.602,0.799-1.602,0.799s0.701-0.41,1.436-1.071C23.14,12.622,23.55,12.048,23.55,12.048z"/>
<path fill-rule="evenodd" clip-rule="evenodd" fill="#994708" d="M23.132,13.461c0,0-0.218,0.603-0.951,1.03
	c-0.734,0.427-1.336,0.403-1.336,0.403s0.593-0.221,1.244-0.639C22.731,13.843,23.132,13.461,23.132,13.461z"/>
<path fill-rule="evenodd" clip-rule="evenodd" fill="#994708" d="M22.714,14.537c0,0-0.242,0.486-0.9,0.774
	c-0.66,0.288-1.16,0.211-1.16,0.211s0.525-0.131,1.109-0.416C22.347,14.824,22.714,14.537,22.714,14.537z"/>
<path fill-rule="evenodd" clip-rule="evenodd" fill="#994708" d="M22.28,15.562c0,0-0.26,0.38-0.852,0.539
	c-0.592,0.156-1.01,0.027-1.01,0.027s0.451-0.044,0.984-0.207C21.929,15.756,22.28,15.562,22.28,15.562z"/>
<path fill-rule="evenodd" clip-rule="evenodd" fill="#994708" d="M21.661,16.484c0,0-0.258,0.305-0.766,0.368
	c-0.502,0.062-0.828-0.109-0.828-0.109s0.385-0.004,0.844-0.079C21.362,16.587,21.661,16.484,21.661,16.484z"/>
<path fill-rule="evenodd" clip-rule="evenodd" fill="#994708" d="M21.42,17.324c0,0-0.368,0.194-0.876,0.14
	c-0.51-0.053-0.742-0.261-0.742-0.261s0.375,0.077,0.834,0.11C21.095,17.342,21.42,17.324,21.42,17.324z"/>
<path fill-rule="evenodd" clip-rule="evenodd" fill="#994708" d="M20.743,18.131c0,0-0.316,0.124-0.709-0.06
	c-0.405-0.184-0.571-0.482-0.571-0.482s0.138,0.129,0.506,0.281C20.335,18.021,20.743,18.131,20.743,18.131z"/>
<path fill-rule="evenodd" clip-rule="evenodd" fill="#994708" d="M19.926,18.789c0,0-0.292,0.006-0.545-0.279
	c-0.255-0.288-0.288-0.609-0.288-0.609s0.087,0.152,0.329,0.404C19.664,18.558,19.926,18.789,19.926,18.789z"/>
<path fill-rule="evenodd" clip-rule="evenodd" fill="#994708" d="M19.062,19.12c0,0-0.237-0.082-0.355-0.39
	c-0.111-0.311-0.042-0.581-0.042-0.581s0.025,0.152,0.143,0.43C18.925,18.855,19.062,19.12,19.062,19.12z"/>
<path fill-rule="evenodd" clip-rule="evenodd" fill="#994708" d="M18.419,19.435c0,0-0.208-0.098-0.283-0.386
	c-0.08-0.29,0.008-0.528,0.008-0.528s0.014,0.14,0.093,0.401C18.315,19.18,18.419,19.435,18.419,19.435z"/>
<path fill-rule="evenodd" clip-rule="evenodd" fill="#994708" d="M17.853,19.63c0,0-0.185-0.114-0.221-0.393
	c-0.033-0.278,0.079-0.489,0.079-0.489s-0.01,0.131,0.028,0.384C17.785,19.385,17.853,19.63,17.853,19.63z"/>
<path fill-rule="evenodd" clip-rule="evenodd" fill="#994708" d="M17.276,19.89c0,0-0.167-0.188-0.117-0.514
	c0.05-0.323,0.241-0.521,0.241-0.521s-0.054,0.142-0.087,0.438C17.28,19.589,17.276,19.89,17.276,19.89z"/>
<path id="head_1_" fill="#994708" d="M16.236,16.13c-0.083-0.154-0.125-0.512-0.125-0.512s0.034,0.075,0.088,0.104
	s0.101,0.023,0.101,0.023s-0.088-0.131-0.113-0.214c-0.045-0.15-0.058-0.325-0.092-0.482c-0.013-0.055-0.046-0.149-0.046-0.149
	s0.021,0.011,0.037,0.028c0.018,0.017,0.034,0.041,0.034,0.041s-0.004-0.064-0.009-0.102c-0.037-0.25-0.329-0.392-0.626-0.398
	c-0.184-0.002-0.392,0.047-0.505,0.133c-0.083,0.062-0.146,0.159-0.171,0.202c-0.055-0.017-0.112-0.027-0.166-0.027
	c-0.28,0-0.284,0.261-0.264,0.328c0.021,0.082,0.096,0.204,0.096,0.204s0.021-0.203,0.096-0.221
	c0.051-0.009,0.146-0.002,0.192,0.012c0.051,0.021,0.088,0.052,0.088,0.052s-0.104-0.025-0.188-0.021
	c-0.084,0.004-0.126,0.052-0.126,0.052s0.139,0.065,0.354,0.073c0.055,0.004,0.101,0.004,0.143,0.004
	c0.075,0.134,0.217,0.461,0.004,0.756c-0.188,0.252-0.542,0.279-0.542,0.279s0.142,0.077,0.287,0.176
	c0.151,0.098,0.288,0.309,0.785,0.309c0.501,0,0.65-0.19,0.793-0.292c0.142-0.102,0.322-0.183,0.322-0.183
	S16.316,16.278,16.236,16.13z M14.931,14.759c0,0,0.021-0.055,0.092-0.075c0.067-0.023,0.179-0.002,0.179-0.002
	s-0.028,0.076-0.082,0.086C15.056,14.779,14.931,14.759,14.931,14.759z"/>
<path fill="#B32317" d="M30.197,21.056L19.104,44.634c-0.643,1.347-2.042,2.166-3.506,2.166c-1.46,0-2.86-0.819-3.473-2.166
	L1.003,21.056C0.21,19.379,0,17.46,0,15.598C0,6.978,6.978,0,15.598,0c8.63,0,15.608,6.978,15.608,15.598
	C31.206,17.46,30.989,19.379,30.197,21.056z"/>
<path id="hunting_1_" display="none" fill="#F58025" d="M25.073,13.787c-0.212-0.185-0.493-0.271-0.758-0.309
	c0.446-0.514,1.025-1.305,1.025-1.968c0-0.687-0.183-1.042-0.305-1.277c-0.037-0.072-0.072-0.139-0.079-0.174
	c0.003-0.042,0.023-0.166,0.04-0.266c0.09-0.536,0.242-1.433-0.172-1.92c-0.124-0.143-0.348-0.313-0.733-0.313
	c-0.281,0-0.523,0.114-0.701,0.33c-0.396,0.486-0.382,1.442-0.313,2.103c-0.374-0.157-0.822-0.187-1.188,0.18
	c-0.147,0.147-0.218,0.337-0.204,0.55c0.036,0.54,0.645,1.156,1.035,1.5c-0.237,0.19-0.635,0.491-1.193,0.868
	c-0.557,0.376-1.042,0.566-1.345,0.659l-0.065-2.147c-0.003-0.092-0.047-0.18-0.122-0.235c-0.073-0.056-0.169-0.075-0.26-0.051
	c-0.034,0.008-0.829,0.222-1.215,1c-0.326,0.647-0.215,2.325-0.172,2.823l-1.322,1.726c-0.104,0.023-0.21,0.05-0.315,0.078
	c-0.312,0.081-0.663,0.174-1.13,0.174c-0.443,0-0.719-0.074-0.985-0.146c-0.131-0.036-0.263-0.071-0.409-0.096l-1.329-1.735
	c0.041-0.498,0.153-2.176-0.17-2.823c-0.39-0.778-1.184-0.992-1.217-1c-0.089-0.023-0.185-0.005-0.26,0.051
	c-0.075,0.056-0.119,0.144-0.123,0.235l-0.064,2.147c-0.304-0.093-0.787-0.283-1.344-0.659c-0.559-0.376-0.956-0.677-1.194-0.868
	c0.394-0.344,1-0.96,1.036-1.5c0.013-0.213-0.057-0.403-0.205-0.55c-0.366-0.366-0.813-0.337-1.189-0.18
	c0.07-0.661,0.084-1.617-0.313-2.103c-0.177-0.216-0.419-0.33-0.701-0.33c-0.386,0-0.61,0.17-0.73,0.313
	c-0.413,0.487-0.263,1.384-0.174,1.92c0.018,0.1,0.038,0.225,0.039,0.266c-0.005,0.035-0.041,0.103-0.078,0.174
	c-0.122,0.235-0.306,0.59-0.306,1.277c0,0.663,0.579,1.455,1.027,1.968c-0.264,0.039-0.547,0.124-0.759,0.309
	c-0.207,0.181-0.319,0.433-0.319,0.729c0,0.387,0.161,0.614,0.296,0.737c0.303,0.274,0.716,0.263,0.813,0.257l3.543-0.025
	c0.137,0.067,0.582,0.319,1.156,0.989c0.707,0.825,0.931,1.562,0.933,1.57c0.003,0.011,0.008,0.022,0.013,0.033
	c-0.074,0.248-0.125,0.514-0.15,0.787c-0.253-0.437-0.549-0.845-0.871-1.097c-0.738-0.575-2.033-0.66-2.736-0.66
	c-0.227,0-0.37,0.008-0.378,0.009c-0.098,0.007-0.187,0.061-0.239,0.143c-0.052,0.083-0.061,0.187-0.023,0.278
	c0.013,0.035,0.341,0.841,0.679,1.438c0.029,0.049,0.058,0.1,0.087,0.152c0.323,0.581,0.728,1.304,1.448,1.742
	c0.402,0.245,1.085,0.368,2.032,0.368c0.199,0,0.364-0.006,0.47-0.01c0.101,0.262,0.206,0.521,0.304,0.762
	c0.193,0.474,0.376,0.923,0.409,1.138c0.014,0.095,0.018,0.25,0.02,0.432c0.019,0.895,0.053,2.759,2.016,2.759
	c1.91,0,1.979-1.793,2.017-2.756c0.009-0.226,0.019-0.439,0.043-0.578c0.053-0.277,0.232-0.699,0.427-1.146
	c0.086-0.198,0.176-0.403,0.261-0.612c0.104,0.005,0.272,0.011,0.477,0.011l0,0c0.947,0,1.63-0.123,2.035-0.368
	c0.721-0.438,1.122-1.162,1.447-1.742c0.028-0.053,0.056-0.103,0.085-0.152c0.339-0.597,0.668-1.402,0.679-1.438
	c0.036-0.091,0.027-0.194-0.023-0.278c-0.053-0.083-0.14-0.136-0.24-0.143c-0.006,0-0.148-0.009-0.377-0.009
	c-0.704,0-1.998,0.085-2.735,0.66c-0.325,0.254-0.625,0.667-0.879,1.109c-0.028-0.305-0.097-0.593-0.188-0.853
	c0.04-0.119,0.281-0.798,0.925-1.549c0.578-0.671,1.023-0.923,1.157-0.989l3.544,0.025c0.097,0.006,0.509,0.017,0.812-0.257
	c0.137-0.124,0.298-0.351,0.298-0.737C25.394,14.22,25.282,13.967,25.073,13.787z M12.085,16.076
	c-0.794-0.926-1.388-1.161-1.454-1.185c-0.034-0.012-0.069-0.019-0.106-0.018l-3.619,0.025c-0.008,0-0.017,0-0.024,0
	c-0.064,0.005-0.257-0.003-0.363-0.101c-0.022-0.021-0.095-0.087-0.095-0.283c0-0.12,0.036-0.202,0.111-0.268
	c0.246-0.216,0.835-0.194,1.021-0.168c0.132,0.019,0.26-0.051,0.317-0.17c0.059-0.121,0.031-0.263-0.064-0.355
	c-0.515-0.487-1.332-1.475-1.332-2.045c0-0.537,0.131-0.792,0.237-0.997c0.066-0.128,0.13-0.25,0.144-0.403
	c0.009-0.092-0.009-0.2-0.046-0.418C6.749,9.317,6.618,8.538,6.847,8.267c0.035-0.042,0.103-0.098,0.265-0.098
	c0.099,0,0.167,0.032,0.227,0.106c0.321,0.391,0.222,1.606,0.086,2.281c-0.026,0.131,0.034,0.264,0.152,0.328
	c0.117,0.064,0.263,0.046,0.359-0.047c0.007-0.007,0.607-0.574,0.947-0.234c0.021,0.019,0.029,0.038,0.025,0.08
	c-0.021,0.327-0.664,0.968-1.092,1.297c-0.071,0.056-0.115,0.14-0.118,0.231C7.694,12.302,7.732,12.39,7.8,12.45
	c0.02,0.018,0.512,0.456,1.536,1.147c1.067,0.72,1.907,0.836,1.942,0.84c0.086,0.011,0.172-0.015,0.237-0.07
	c0.066-0.057,0.104-0.138,0.106-0.224l0.062-2.057c0.16,0.106,0.338,0.267,0.455,0.503c0.212,0.424,0.172,1.828,0.096,2.611
	c-0.008,0.077,0.016,0.154,0.062,0.216l1.139,1.483c-0.201,0.081-0.375,0.231-0.519,0.432C12.755,17,12.492,16.551,12.085,16.076z
	 M12.413,20.625c-0.798,0-1.423-0.102-1.715-0.279c-0.583-0.354-0.928-0.972-1.231-1.517c-0.03-0.054-0.059-0.105-0.089-0.156
	c-0.172-0.303-0.344-0.675-0.469-0.953c0.555,0.007,1.682,0.08,2.259,0.53c0.356,0.277,0.702,0.848,0.979,1.417l-0.945-0.561
	c-0.146-0.087-0.333-0.04-0.419,0.106c-0.087,0.144-0.038,0.333,0.106,0.419l1.67,0.991c0,0,0,0,0,0.001
	C12.514,20.625,12.464,20.625,12.413,20.625z M14.693,25.379c-0.393-0.39-0.452-1.087-0.466-1.833
	c-0.004-0.203-0.006-0.377-0.028-0.512c-0.044-0.286-0.222-0.723-0.446-1.277c-0.333-0.818-0.748-1.837-0.748-2.474
	c0-0.119,0.007-0.233,0.016-0.345c0.379,0.118,1,0.381,1.263,0.791c0.4,0.621,0.41,1.231,0.41,1.236V25.379z M15.962,21.015v4.663
	c-0.101,0.018-0.211,0.028-0.331,0.028c-0.117,0-0.227-0.011-0.325-0.027v-4.714c0-0.032-0.007-0.787-0.507-1.567
	c-0.411-0.638-1.291-0.955-1.672-1.066c0.146-0.538,0.405-0.885,0.644-0.885c0.25,0,0.441,0.053,0.664,0.113
	c0.291,0.079,0.621,0.169,1.146,0.169c0.547,0,0.957-0.109,1.285-0.196c0.226-0.06,0.421-0.11,0.6-0.11
	c0.175,0,0.502,0.36,0.676,0.986c-0.398,0.11-1.268,0.412-1.671,1.04C15.968,20.228,15.962,20.983,15.962,21.015z M17.556,21.596
	c-0.216,0.499-0.403,0.93-0.467,1.274c-0.033,0.182-0.042,0.409-0.054,0.668c-0.028,0.786-0.095,1.455-0.461,1.833v-4.356
	c0-0.005,0.01-0.614,0.409-1.236c0.259-0.4,0.876-0.652,1.262-0.765c0.007,0.088,0.012,0.175,0.012,0.269
	C18.257,19.976,17.886,20.835,17.556,21.596z M18.711,20.619l1.631-1.01c0.143-0.089,0.188-0.278,0.096-0.422
	C20.35,19.044,20.163,19,20.02,19.09l-0.885,0.546c0.274-0.559,0.614-1.115,0.965-1.386c0.578-0.45,1.705-0.523,2.258-0.53
	c-0.122,0.278-0.297,0.65-0.468,0.953c-0.027,0.051-0.059,0.102-0.088,0.156c-0.303,0.545-0.648,1.164-1.231,1.517
	c-0.293,0.178-0.917,0.279-1.716,0.279c-0.052,0-0.101,0-0.146-0.001C18.71,20.623,18.71,20.62,18.711,20.619z M24.686,14.799
	c-0.104,0.097-0.297,0.105-0.36,0.101c-0.008,0-0.017-0.001-0.028-0.001l-3.617-0.025c-0.036-0.001-0.073,0.005-0.107,0.018
	c-0.063,0.024-0.659,0.258-1.451,1.185c-0.403,0.47-0.666,0.913-0.827,1.24c-0.153-0.203-0.323-0.354-0.511-0.436l1.122-1.464
	c0.049-0.062,0.068-0.139,0.063-0.216c-0.075-0.784-0.115-2.187,0.097-2.611c0.117-0.236,0.294-0.396,0.453-0.503l0.062,2.057
	c0.001,0.086,0.042,0.167,0.108,0.224c0.065,0.055,0.152,0.082,0.237,0.07c0.035-0.004,0.873-0.12,1.94-0.84
	c1.024-0.691,1.516-1.129,1.537-1.147c0.069-0.06,0.104-0.148,0.102-0.239c-0.001-0.091-0.047-0.175-0.119-0.231
	c-0.428-0.33-1.071-0.971-1.091-1.297c-0.005-0.042,0.007-0.061,0.024-0.08c0.341-0.34,0.941,0.227,0.948,0.233
	c0.097,0.093,0.24,0.112,0.358,0.048c0.117-0.063,0.183-0.197,0.153-0.328c-0.137-0.675-0.232-1.89,0.085-2.281
	c0.06-0.074,0.127-0.106,0.227-0.106c0.166,0,0.229,0.056,0.265,0.098c0.229,0.271,0.099,1.05,0.038,1.424
	c-0.038,0.219-0.056,0.326-0.048,0.418c0.016,0.153,0.08,0.275,0.146,0.403c0.104,0.205,0.235,0.459,0.235,0.997
	c0,0.57-0.814,1.558-1.331,2.045c-0.095,0.093-0.123,0.235-0.065,0.355c0.059,0.119,0.185,0.188,0.318,0.17
	c0.231-0.032,0.79-0.034,1.021,0.168c0.076,0.066,0.111,0.148,0.111,0.268C24.782,14.711,24.709,14.777,24.686,14.799z"/>
<path id="climbing_1_" display="none" fill="#F58025" d="M23.083,11.336c-0.686-1.644-1.906-2.11-2.062-2.164l-3.4-1.398
	c-0.003,0-0.005-0.001-0.011-0.003c-0.061-0.023-1.527-0.548-2.819-0.009c-1.772,0.74-2.341,2.136-2.386,2.253l-0.455,1.109
	L11.649,11c-0.156-0.064-0.335,0.011-0.398,0.167l-0.385,0.936l-0.283-0.116c-0.156-0.064-0.334,0.011-0.4,0.166l-0.61,1.485
	c-0.047,0.114-0.019,0.24,0.06,0.324c-0.115,0.006-0.222,0.074-0.27,0.188L8.79,15.547c-0.064,0.156,0.01,0.335,0.166,0.398
	l0.284,0.116l-1.263,3.075c-0.065,0.156,0.01,0.334,0.166,0.399l0.301,0.124l-0.471,1.146c-0.024,0.057-0.573,1.404,0.015,2.822
	c0.409,0.987,1.256,1.75,2.52,2.269c2.673,1.099,4.528-0.845,4.546-0.865c0.005-0.004,0.008-0.009,0.012-0.015
	c0.303-0.364,7.395-8.964,7.987-10.404l0.014-0.031C23.49,13.547,23.746,12.923,23.083,11.336z M11.7,11.682l1.784,0.733
	l-0.269,0.654l-1.785-0.733L11.7,11.682z M9.749,21.209c0.002-0.006,0.006-0.012,0.008-0.018l0.349-0.849l0.386,0.158
	c0.156,0.064,0.336-0.01,0.4-0.166l1.262-3.075l0.283,0.116c0.156,0.064,0.335-0.01,0.398-0.166l0.574-1.396
	c0.046-0.114,0.019-0.24-0.06-0.324c0.115-0.005,0.224-0.075,0.269-0.188l0.611-1.484c0.063-0.156-0.011-0.335-0.168-0.399
	l-0.282-0.117l0.384-0.936c0.064-0.156-0.01-0.334-0.166-0.398l-0.272-0.112l0.449-1.094c0.037-0.074,0.453-0.863,1.399-1.259
	c0.748-0.312,1.552,0.032,1.56,0.035c0.004,0.001,0.006,0.001,0.008,0.002l2.985,1.228c0.008,0.002,0.013,0.006,0.021,0.008
	c0.007,0.002,0.773,0.266,1.241,1.384c0.46,1.109-0.157,1.873-0.183,1.902c-0.002,0.003-0.004,0.005-0.006,0.009l-7.259,9.222
	c-0.003,0.004-0.007,0.009-0.008,0.011c-0.043,0.06-1.06,1.439-2.575,0.815c-0.865-0.354-1.421-0.84-1.652-1.438
	C9.416,21.924,9.746,21.214,9.749,21.209z M10.634,12.669l2.915,1.198l-0.378,0.919l-2.916-1.197L10.634,12.669z M9.471,15.497
	l0.342-0.83l2.916,1.197l-0.341,0.831L9.471,15.497z M9.805,16.294l1.784,0.733l-1.147,2.792l-1.784-0.734L9.805,16.294z
	 M22.485,14.379c-0.46,1.123-5.841,7.763-7.885,10.239c-0.1,0.103-1.641,1.625-3.861,0.711c-1.413-0.58-2.215-1.47-2.38-2.647
	c-0.125-0.893,0.174-1.635,0.177-1.644l0.473-1.148l0.531,0.219l-0.345,0.841c-0.053,0.112-0.427,0.978-0.062,1.939
	c0.291,0.766,0.963,1.371,1.995,1.795c1.57,0.644,2.841-0.382,3.298-1.019l7.252-9.214c0.079-0.094,0.87-1.104,0.275-2.527
	c-0.545-1.303-1.471-1.678-1.601-1.724l-2.975-1.224c-0.087-0.037-1.068-0.444-2.039-0.038c-1.205,0.502-1.7,1.523-1.719,1.565
	c-0.003,0.005-0.005,0.01-0.007,0.016l-0.454,1.103l-0.646-0.266l0.457-1.114c0.002-0.003,0.002-0.006,0.004-0.01
	c0.005-0.012,0.482-1.252,2.051-1.906c1.036-0.433,2.286-0.012,2.369,0.017l3.403,1.398c0.008,0.002,0.015,0.005,0.022,0.008
	c0.044,0.015,1.095,0.375,1.696,1.82c0.566,1.354,0.396,1.771-0.019,2.779L22.485,14.379z"/>
<path id="camping_1_" fill="#F58025" d="M23.661,22.428l-4.437-1.622c0.236-0.244,0.438-0.494,0.604-0.734
	c0.834-1.191,1.332-2.792,1.332-4.281c0-3.157-0.476-4.532-0.496-4.589l-0.346-0.976l-0.239,1.007
	c-0.006,0.017-0.391,1.631-1.101,2.677c-0.651,0.961-1.277,1.53-1.525,1.652c-0.036-0.139-0.041-0.434-0.047-0.658
	c-0.004-0.267-0.012-0.569-0.049-0.88c-0.104-0.888-0.494-2.027-0.511-2.076l-0.282-0.819l-0.293,0.815
	c-0.326,0.902-0.91,1.911-1.202,1.911c-0.214-0.011-0.859-0.889-0.859-2.428c0-1.539,0.642-3.224,0.648-3.241l0.195-0.509
	l-0.534,0.099c-0.046,0.007-1.107,0.209-2.178,0.952c-0.998,0.692-2.188,2.001-2.188,4.304c0,2.534,0.918,3.616,1.358,4.135
	c0.03,0.036,0.064,0.076,0.094,0.112c-0.05,0.021-0.105,0.032-0.167,0.032c-0.286,0-0.624-0.222-0.728-0.308l-0.65-0.529
	l0.156,0.824c0.009,0.051,0.247,1.275,1.006,2.514c0.208,0.339,0.433,0.645,0.677,0.918l-4.357,1.592
	c-0.931,0.113-1.655,0.909-1.655,1.87c0,1.036,0.845,1.882,1.883,1.882c0.236,0,0.46-0.042,0.668-0.121c0.002,0,0.003,0,0.003-0.001
	l7.147-2.607l6.744,2.48c0.31,0.223,0.689,0.355,1.1,0.355c1.04,0,1.884-0.846,1.884-1.885
	C25.317,23.337,24.595,22.541,23.661,22.428z M10.996,17.846c0.138,0.046,0.288,0.077,0.442,0.077c0.276,0,0.524-0.101,0.716-0.294
	c0.297-0.297,0.023-0.62-0.176-0.856c-0.424-0.499-1.214-1.429-1.214-3.74c0-1.628,0.643-2.904,1.908-3.79
	c0.523-0.364,1.05-0.588,1.427-0.716c-0.204,0.657-0.5,1.796-0.5,2.901c0,1.739,0.777,3.039,1.471,3.039
	c0.593,0,1.11-0.821,1.443-1.516c0.097,0.357,0.196,0.78,0.24,1.145c0.032,0.283,0.038,0.569,0.045,0.821
	c0.013,0.605,0.023,1.083,0.406,1.244c0.058,0.024,0.118,0.036,0.184,0.036c0.613,0,1.608-1.221,2.095-1.944
	c0.367-0.538,0.649-1.194,0.847-1.744c0.109,0.714,0.22,1.791,0.22,3.281c0,1.763-0.792,4.038-2.505,5.206
	c0.219-0.399,0.324-0.83,0.324-1.206c0-1.169-0.218-1.695-0.243-1.751c-0.051-0.117-0.171-0.189-0.298-0.18
	c-0.131,0.008-0.236,0.095-0.275,0.218c-0.044,0.152-0.214,0.607-0.459,0.897c-0.159,0.187-0.312,0.329-0.431,0.421
	c-0.004-0.083-0.008-0.178-0.023-0.276c-0.05-0.35-0.239-0.786-0.248-0.806c-0.047-0.111-0.156-0.183-0.277-0.184
	c-0.119-0.001-0.231,0.068-0.281,0.179c-0.108,0.241-0.289,0.504-0.39,0.574c-0.083-0.071-0.231-0.313-0.231-0.673
	c0-0.507,0.27-1.078,0.273-1.083c0.054-0.11,0.035-0.242-0.046-0.334c-0.08-0.093-0.208-0.127-0.325-0.089
	c-0.75,0.246-2.168,1.147-2.168,2.805c0,0.65,0.126,1.201,0.365,1.641c-0.219-0.138-0.428-0.299-0.626-0.483
	c-0.019-0.023-0.04-0.042-0.063-0.059c-0.316-0.306-0.606-0.671-0.868-1.097C11.379,18.903,11.139,18.29,10.996,17.846z
	 M15.578,21.758c-1.668-0.025-2.022-1.234-2.022-2.251c0-0.988,0.621-1.588,1.124-1.912c-0.045,0.191-0.08,0.403-0.08,0.613
	c0,0.69,0.39,1.297,0.834,1.297c0.23,0,0.431-0.155,0.592-0.347c0.003,0.017,0.005,0.032,0.008,0.049
	c0.013,0.089,0.016,0.182,0.018,0.271c0.007,0.226,0.015,0.535,0.309,0.633c0.039,0.014,0.083,0.021,0.126,0.021
	c0.401,0,0.961-0.638,1.071-0.765c0.062-0.073,0.119-0.151,0.171-0.23c0.017,0.185,0.029,0.402,0.029,0.652
	c0,0.702-0.49,1.781-1.779,1.946C15.848,21.75,15.715,21.757,15.578,21.758z M6.499,24.194c0-0.703,0.57-1.274,1.272-1.274
	s1.273,0.571,1.273,1.274c0,0.701-0.571,1.271-1.273,1.271S6.499,24.895,6.499,24.194z M15.485,22.733l-5.973,2.179
	c0.073-0.176,0.12-0.364,0.136-0.562l2.092-0.697c0.161-0.053,0.248-0.226,0.194-0.386c-0.053-0.16-0.226-0.246-0.386-0.194
	l-1.954,0.65c-0.038-0.152-0.095-0.295-0.167-0.428l0.917-0.317c0.16-0.055,0.245-0.23,0.189-0.389
	c-0.055-0.16-0.229-0.244-0.389-0.19l-1.122,0.388c-0.099-0.088-0.21-0.168-0.327-0.235l3.682-1.345
	c0.876,0.767,1.934,1.164,3.124,1.164c0.024,0,0.045-0.001,0.068-0.001c0.021,0,0.041,0.001,0.062,0.001
	c0.138,0,0.271-0.009,0.399-0.025c1.138-0.104,2.019-0.538,2.687-1.075l3.793,1.386c-0.118,0.067-0.228,0.146-0.329,0.235
	l-1.12-0.387c-0.159-0.054-0.335,0.03-0.39,0.19c-0.053,0.158,0.029,0.332,0.189,0.387l0.918,0.318
	c-0.073,0.134-0.131,0.277-0.169,0.427l-1.952-0.649c-0.16-0.053-0.333,0.034-0.388,0.194c-0.053,0.16,0.033,0.331,0.194,0.385
	l2.094,0.697c0.014,0.163,0.047,0.323,0.102,0.473l-5.963-2.194C15.628,22.708,15.555,22.708,15.485,22.733z M23.434,25.57
	c-0.703,0-1.271-0.569-1.271-1.272c0-0.701,0.568-1.272,1.271-1.272c0.702,0,1.273,0.572,1.273,1.272
	C24.707,25,24.136,25.57,23.434,25.57z"/>
</svg>
