<?xml version="1.0" encoding="utf-8"?>
<!-- Generator: Adobe Illustrator 15.0.0, SVG Export Plug-In  -->
<!DOCTYPE svg PUBLIC "-//W3C//DTD SVG 1.1//EN" "http://www.w3.org/Graphics/SVG/1.1/DTD/svg11.dtd" [
	<!ENTITY ns_flows "http://ns.adobe.com/Flows/1.0/">
]>
<svg version="1.1"
	 xmlns="http://www.w3.org/2000/svg" xmlns:xlink="http://www.w3.org/1999/xlink" xmlns:a="http://ns.adobe.com/AdobeSVGViewerExtensions/3.0/"
	 x="0px" y="0px" width="36px" height="36px" viewBox="-5.998 0 36 36" overflow="visible" enable-background="new -5.998 0 36 36"
	 xml:space="preserve">
<defs>
</defs>
<path fill="#91B0D5" d="M23.229,16.197l-8.534,18.137C14.2,35.37,13.125,36,11.998,36c-1.123,0-2.2-0.63-2.671-1.666L0.771,16.197
	C0.162,14.907,0,13.431,0,11.999C0,5.367,5.367,0,11.998,0c6.639,0,12.006,5.367,12.006,11.999
	C24.004,13.431,23.838,14.907,23.229,16.197z"/>
<path fill-rule="evenodd" clip-rule="evenodd" fill="#994708" d="M11.994,17.224c0,0-0.239,1.066-0.239,1.592
	c0,0.526,0.239,1.427,0.239,1.427s0.217-0.768,0.217-1.43C12.211,18.154,11.994,17.224,11.994,17.224z"/>
<path fill-rule="evenodd" clip-rule="evenodd" fill="#994708" d="M11.985,15.415c-1.123,0-1.757,2.755-1.757,2.755
	s0.993-1.459,1.114-1.459c0.288,0,0.4,0.306,0.635,0.306c0.004,0,0.008,0,0.012,0c0.233,0,0.347-0.306,0.635-0.306
	c0.121,0,1.109,1.459,1.109,1.459S13.104,15.415,11.985,15.415z"/>
<path fill-rule="evenodd" clip-rule="evenodd" fill="#994708" d="M12.303,17.094c0,0-0.033,0.855,0.037,1.26
	c0.075,0.408,0.385,1.073,0.385,1.073s0.058-0.627-0.033-1.138C12.595,17.781,12.303,17.094,12.303,17.094z"/>
<path fill-rule="evenodd" clip-rule="evenodd" fill="#994708" d="M12.574,16.856c0,0,0.108,0.687,0.229,0.997
	c0.126,0.316,0.476,0.795,0.476,0.795s-0.05-0.509-0.203-0.899C12.92,17.357,12.574,16.856,12.574,16.856z"/>
<path fill-rule="evenodd" clip-rule="evenodd" fill="#994708" d="M11.609,17.161c0,0,0.034,0.858-0.037,1.262
	c-0.075,0.407-0.384,1.071-0.384,1.071s-0.059-0.625,0.033-1.136C11.313,17.85,11.609,17.161,11.609,17.161z"/>
<path fill-rule="evenodd" clip-rule="evenodd" fill="#994708" d="M11.335,16.923c0,0-0.104,0.687-0.23,1.002
	c-0.121,0.311-0.471,0.793-0.471,0.793s0.049-0.509,0.203-0.902C10.992,17.425,11.335,16.923,11.335,16.923z"/>
<path id="torso_1_" fill="#994708" d="M13.036,11.039c-0.32,0.161-0.462,0.488-1.042,0.488c-0.005,0-0.009,0.001-0.009,0.001
	c-0.004,0-0.004-0.001-0.008-0.001c-0.585,0-0.727-0.328-1.052-0.488c-0.321-0.163-0.989-0.301-0.989-0.301s0.137,0.15,0.363,0.321
	c0.225,0.171,0.366,0.229,0.463,0.354c0.1,0.125,0.25,0.518,0.342,1.38c0.046,0.41,0.242,1.22,0.196,1.821
	c-0.021,0.284-0.158,0.558-0.233,0.797c-0.084,0.271-0.092,0.491-0.092,0.491s0.275-0.674,1.01-0.674
	c0.73,0,1.006,0.674,1.006,0.674s-0.012-0.219-0.092-0.491c-0.075-0.239-0.213-0.513-0.234-0.797
	c-0.041-0.601,0.15-1.411,0.197-1.821c0.091-0.863,0.242-1.255,0.342-1.38c0.096-0.125,0.238-0.184,0.463-0.354
	s0.364-0.321,0.364-0.321S13.363,10.876,13.036,11.039z"/>
<path fill="#994708" d="M8.584,8.447c0,0-1.581-0.409-2.5-0.987C5.053,6.813,4.039,5.774,4.039,5.774S4.356,6.58,4.924,7.187
	c0.509,0.547,1.261,0.956,1.619,1.261c0.238,0.204,0.622,1.767,1.277,2.812c0.889,1.413,2.266,1.738,2.521,1.993
	c0.325,0.326,0.772,1.707,0.772,1.707s0.062-0.292,0.045-0.553c-0.016-0.258-0.434-2.683-0.566-2.884
	c-0.138-0.213-0.897-0.521-1.424-1.413C8.685,9.296,8.584,8.447,8.584,8.447z"/>
<path fill-rule="evenodd" clip-rule="evenodd" fill="#994708" d="M4.048,6.648c0,0,0.142,0.812,0.976,1.511
	c0.835,0.696,1.604,0.799,1.604,0.799S5.93,8.549,5.195,7.888C4.465,7.222,4.048,6.648,4.048,6.648z"/>
<path fill-rule="evenodd" clip-rule="evenodd" fill="#994708" d="M4.47,8.061c0,0,0.216,0.603,0.951,1.03
	c0.734,0.427,1.34,0.403,1.34,0.403S6.168,9.273,5.517,8.855C4.861,8.443,4.47,8.061,4.47,8.061z"/>
<path fill-rule="evenodd" clip-rule="evenodd" fill="#994708" d="M4.886,9.137c0,0,0.238,0.486,0.897,0.774
	c0.656,0.288,1.16,0.211,1.16,0.211S6.427,9.991,5.838,9.707C5.254,9.424,4.886,9.137,4.886,9.137z"/>
<path fill-rule="evenodd" clip-rule="evenodd" fill="#994708" d="M5.315,10.162c0,0,0.268,0.38,0.856,0.539
	c0.593,0.156,1.01,0.027,1.01,0.027s-0.454-0.044-0.985-0.207C5.663,10.356,5.315,10.162,5.315,10.162z"/>
<path fill-rule="evenodd" clip-rule="evenodd" fill="#994708" d="M5.934,11.084c0,0,0.268,0.305,0.772,0.368
	c0.501,0.062,0.826-0.109,0.826-0.109s-0.384-0.004-0.844-0.079C6.234,11.187,5.934,11.084,5.934,11.084z"/>
<path fill-rule="evenodd" clip-rule="evenodd" fill="#994708" d="M6.18,11.924c0,0,0.372,0.194,0.877,0.14
	c0.509-0.053,0.738-0.261,0.738-0.261s-0.371,0.077-0.831,0.11C6.501,11.942,6.18,11.924,6.18,11.924z"/>
<path fill-rule="evenodd" clip-rule="evenodd" fill="#994708" d="M6.852,12.731c0,0,0.318,0.124,0.718-0.06
	c0.397-0.184,0.568-0.482,0.568-0.482s-0.143,0.129-0.509,0.281C7.261,12.621,6.852,12.731,6.852,12.731z"/>
<path fill-rule="evenodd" clip-rule="evenodd" fill="#994708" d="M7.67,13.389c0,0,0.297,0.006,0.547-0.279
	C8.471,12.821,8.509,12.5,8.509,12.5s-0.092,0.152-0.334,0.404C7.938,13.158,7.67,13.389,7.67,13.389z"/>
<path fill-rule="evenodd" clip-rule="evenodd" fill="#994708" d="M8.534,13.72c0,0,0.237-0.082,0.354-0.39
	c0.117-0.311,0.042-0.581,0.042-0.581s-0.025,0.152-0.139,0.43C8.676,13.455,8.534,13.72,8.534,13.72z"/>
<path fill-rule="evenodd" clip-rule="evenodd" fill="#994708" d="M9.181,14.035c0,0,0.204-0.098,0.284-0.386
	c0.075-0.29-0.009-0.528-0.009-0.528s-0.013,0.14-0.092,0.401C9.285,13.78,9.181,14.035,9.181,14.035z"/>
<path fill-rule="evenodd" clip-rule="evenodd" fill="#994708" d="M9.748,14.23c0,0,0.184-0.114,0.217-0.393
	c0.034-0.278-0.074-0.489-0.074-0.489s0.008,0.131-0.033,0.384C9.814,13.985,9.748,14.23,9.748,14.23z"/>
<path fill-rule="evenodd" clip-rule="evenodd" fill="#994708" d="M10.324,14.49c0,0,0.167-0.188,0.117-0.514
	c-0.051-0.323-0.242-0.521-0.242-0.521s0.05,0.142,0.083,0.438C10.316,14.189,10.324,14.49,10.324,14.49z"/>
<path fill="#994708" d="M15.411,8.447c0,0,1.591-0.409,2.509-0.987c1.025-0.647,2.037-1.687,2.037-1.687S19.648,6.58,19.08,7.187
	c-0.518,0.547-1.261,0.956-1.619,1.261c-0.242,0.204-0.627,1.767-1.28,2.812c-0.89,1.413-2.271,1.738-2.521,1.993
	c-0.327,0.326-0.776,1.707-0.776,1.707s-0.062-0.292-0.042-0.553c0.017-0.258,0.434-2.683,0.564-2.884
	c0.141-0.213,0.901-0.521,1.426-1.413C15.316,9.296,15.411,8.447,15.411,8.447z"/>
<path fill-rule="evenodd" clip-rule="evenodd" fill="#994708" d="M19.949,6.648c0,0-0.143,0.812-0.979,1.511
	c-0.833,0.696-1.602,0.799-1.602,0.799s0.701-0.41,1.436-1.071C19.539,7.222,19.949,6.648,19.949,6.648z"/>
<path fill-rule="evenodd" clip-rule="evenodd" fill="#994708" d="M19.531,8.061c0,0-0.218,0.603-0.951,1.03
	c-0.734,0.427-1.336,0.403-1.336,0.403s0.593-0.221,1.244-0.639C19.131,8.443,19.531,8.061,19.531,8.061z"/>
<path fill-rule="evenodd" clip-rule="evenodd" fill="#994708" d="M19.113,9.137c0,0-0.242,0.486-0.9,0.774
	c-0.66,0.288-1.16,0.211-1.16,0.211s0.525-0.131,1.109-0.416C18.746,9.424,19.113,9.137,19.113,9.137z"/>
<path fill-rule="evenodd" clip-rule="evenodd" fill="#994708" d="M18.68,10.162c0,0-0.26,0.38-0.852,0.539
	c-0.592,0.156-1.01,0.027-1.01,0.027s0.451-0.044,0.984-0.207C18.328,10.356,18.68,10.162,18.68,10.162z"/>
<path fill-rule="evenodd" clip-rule="evenodd" fill="#994708" d="M18.061,11.084c0,0-0.258,0.305-0.766,0.368
	c-0.502,0.062-0.828-0.109-0.828-0.109s0.385-0.004,0.844-0.079C17.762,11.187,18.061,11.084,18.061,11.084z"/>
<path fill-rule="evenodd" clip-rule="evenodd" fill="#994708" d="M17.819,11.924c0,0-0.368,0.194-0.876,0.14
	c-0.51-0.053-0.742-0.261-0.742-0.261s0.375,0.077,0.834,0.11C17.494,11.942,17.819,11.924,17.819,11.924z"/>
<path fill-rule="evenodd" clip-rule="evenodd" fill="#994708" d="M17.143,12.731c0,0-0.316,0.124-0.709-0.06
	c-0.405-0.184-0.571-0.482-0.571-0.482S16,12.318,16.368,12.47C16.734,12.621,17.143,12.731,17.143,12.731z"/>
<path fill-rule="evenodd" clip-rule="evenodd" fill="#994708" d="M16.325,13.389c0,0-0.292,0.006-0.545-0.279
	c-0.255-0.288-0.288-0.609-0.288-0.609s0.087,0.152,0.329,0.404C16.063,13.158,16.325,13.389,16.325,13.389z"/>
<path fill-rule="evenodd" clip-rule="evenodd" fill="#994708" d="M15.462,13.72c0,0-0.237-0.082-0.355-0.39
	c-0.111-0.311-0.042-0.581-0.042-0.581s0.025,0.152,0.143,0.43C15.324,13.455,15.462,13.72,15.462,13.72z"/>
<path fill-rule="evenodd" clip-rule="evenodd" fill="#994708" d="M14.818,14.035c0,0-0.208-0.098-0.283-0.386
	c-0.08-0.29,0.008-0.528,0.008-0.528s0.014,0.14,0.093,0.401C14.715,13.78,14.818,14.035,14.818,14.035z"/>
<path fill-rule="evenodd" clip-rule="evenodd" fill="#994708" d="M14.252,14.23c0,0-0.185-0.114-0.221-0.393
	c-0.033-0.278,0.079-0.489,0.079-0.489s-0.01,0.131,0.028,0.384C14.185,13.985,14.252,14.23,14.252,14.23z"/>
<path fill-rule="evenodd" clip-rule="evenodd" fill="#994708" d="M13.676,14.49c0,0-0.167-0.188-0.117-0.514
	c0.05-0.323,0.241-0.521,0.241-0.521s-0.054,0.142-0.087,0.438C13.68,14.189,13.676,14.49,13.676,14.49z"/>
<path id="head_1_" fill="#994708" d="M12.636,10.73c-0.083-0.154-0.125-0.512-0.125-0.512s0.034,0.075,0.088,0.104
	s0.101,0.023,0.101,0.023s-0.088-0.131-0.113-0.214c-0.045-0.15-0.058-0.325-0.092-0.482C12.481,9.595,12.448,9.5,12.448,9.5
	s0.021,0.011,0.037,0.028c0.018,0.017,0.034,0.041,0.034,0.041s-0.004-0.064-0.009-0.102c-0.037-0.25-0.329-0.392-0.626-0.398
	c-0.184-0.002-0.392,0.047-0.505,0.133c-0.083,0.062-0.146,0.159-0.171,0.202c-0.055-0.017-0.112-0.027-0.166-0.027
	c-0.28,0-0.284,0.261-0.264,0.328C10.8,9.787,10.875,9.91,10.875,9.91s0.021-0.203,0.096-0.221c0.051-0.009,0.146-0.002,0.192,0.012
	c0.051,0.021,0.088,0.052,0.088,0.052s-0.104-0.025-0.188-0.021c-0.084,0.004-0.126,0.052-0.126,0.052s0.139,0.065,0.354,0.073
	c0.055,0.004,0.101,0.004,0.143,0.004c0.075,0.134,0.217,0.461,0.004,0.756c-0.188,0.252-0.542,0.279-0.542,0.279
	s0.142,0.077,0.287,0.176c0.151,0.098,0.288,0.309,0.785,0.309c0.501,0,0.65-0.19,0.793-0.292c0.142-0.102,0.322-0.183,0.322-0.183
	S12.716,10.878,12.636,10.73z M11.33,9.359c0,0,0.021-0.055,0.092-0.075c0.067-0.023,0.179-0.002,0.179-0.002
	s-0.028,0.076-0.082,0.086C11.455,9.379,11.33,9.359,11.33,9.359z"/>
</svg>
